<svg width="314" height="258" viewBox="0 0 314 258" fill="none" xmlns="http://www.w3.org/2000/svg">
<rect x="67.2181" y="56.6797" width="212.642" height="174.518" fill="#D9D9D9"/>
<rect width="34.4372" height="174.518" transform="matrix(-1 0 0 1 313.999 56.9856)" fill="#A0A0A0"/>
<path d="M66.9198 56.9856H313.999V42.1341C313.999 32.1929 305.941 24.134 295.999 24.134H84.9198C74.9787 24.134 66.9198 32.1929 66.9198 42.134V56.9856Z" fill="#DD5858"/>
<path d="M279.562 41.3527C279.562 31.8431 287.271 24.1341 296.781 24.1341C306.29 24.1341 313.999 31.8431 313.999 41.3527V56.9857H279.562V41.3527Z" fill="#A64141"/>
<circle cx="99.4637" cy="41.2489" r="9.98119" fill="#351515"/>
<path d="M117.489 0.000198364C105.37 0.000311751 95.5453 9.82466 95.5452 21.9436V42.0373H103.668V20.4387C103.668 12.806 109.856 6.61836 117.489 6.61836C125.121 6.6184 131.309 12.806 131.309 20.4387V24.177H139.432V21.9436C139.432 9.82458 129.608 0.000198364 117.489 0.000198364Z" fill="#D9D9D9"/>
<circle cx="148.349" cy="41.249" r="9.98119" fill="#351515"/>
<path d="M166.374 0.000297546C154.255 0.000410934 144.431 9.82476 144.431 21.9437V42.0374H152.554V20.4388C152.554 12.8061 158.741 6.61846 166.374 6.61846C174.007 6.61851 180.194 12.8061 180.194 20.4388V24.1771H188.317V21.9437C188.317 9.82468 178.493 0.000297546 166.374 0.000297546Z" fill="#D9D9D9"/>
<circle cx="198.299" cy="41.249" r="9.98119" fill="#351515"/>
<path d="M216.323 0.000297546C204.205 0.000410934 194.38 9.82476 194.38 21.9437V42.0374H202.503V20.4388C202.503 12.8061 208.691 6.61846 216.323 6.61846C223.956 6.61852 230.144 12.8061 230.144 20.4388V24.1771H238.267V21.9437C238.267 9.82468 228.442 0.000297546 216.323 0.000297546Z" fill="#D9D9D9"/>
<circle cx="247.184" cy="41.249" r="9.98119" fill="#351515"/>
<path d="M265.209 0.000297546C253.09 0.000297546 243.265 9.82467 243.265 21.9437V42.0374H251.388V20.4388C251.389 12.8061 257.576 6.61846 265.209 6.61846C272.841 6.61848 279.029 12.8061 279.029 20.4388V24.1771H287.152V21.9437C287.152 9.82468 277.328 0.000320389 265.209 0.000297546Z" fill="#D9D9D9"/>
<rect x="80.0178" y="97.6982" width="25.4947" height="26.1078" stroke="#A0A0A0" stroke-width="1.11991"/>
<rect x="105.53" y="97.6983" width="25.4947" height="26.1078" stroke="#A0A0A0" stroke-width="1.11991"/>
<rect x="131.066" y="97.6983" width="25.4947" height="26.1078" stroke="#A0A0A0" stroke-width="1.11991"/>
<rect x="156.578" y="97.6983" width="25.4947" height="26.1078" stroke="#A0A0A0" stroke-width="1.11991"/>
<rect x="181.884" y="97.6983" width="25.4947" height="26.1078" stroke="#A0A0A0" stroke-width="1.11991"/>
<rect x="207.396" y="97.6983" width="25.4947" height="26.1078" stroke="#A0A0A0" stroke-width="1.11991"/>
<rect x="232.766" y="97.6983" width="25.4947" height="26.1078" stroke="#A0A0A0" stroke-width="1.11991"/>
<rect x="80.0178" y="123.817" width="25.4947" height="26.1078" stroke="#A0A0A0" stroke-width="1.11991"/>
<rect x="105.53" y="123.817" width="25.4947" height="26.1078" stroke="#A0A0A0" stroke-width="1.11991"/>
<rect x="131.066" y="123.817" width="25.4947" height="26.1078" stroke="#A0A0A0" stroke-width="1.11991"/>
<rect x="156.578" y="123.817" width="25.4947" height="26.1078" stroke="#A0A0A0" stroke-width="1.11991"/>
<rect x="181.884" y="123.817" width="25.4947" height="26.1078" stroke="#A0A0A0" stroke-width="1.11991"/>
<rect x="207.395" y="123.817" width="25.4947" height="26.1078" stroke="#A0A0A0" stroke-width="1.11991"/>
<rect x="232.766" y="123.817" width="25.4947" height="26.1078" stroke="#A0A0A0" stroke-width="1.11991"/>
<rect x="80.0178" y="149.994" width="25.4947" height="26.1078" stroke="#A0A0A0" stroke-width="1.11991"/>
<rect x="105.53" y="149.994" width="25.4947" height="26.1078" stroke="#A0A0A0" stroke-width="1.11991"/>
<rect x="131.066" y="149.994" width="25.4947" height="26.1078" stroke="#A0A0A0" stroke-width="1.11991"/>
<rect x="156.578" y="149.994" width="25.4947" height="26.1078" stroke="#A0A0A0" stroke-width="1.11991"/>
<rect x="181.884" y="149.994" width="25.4947" height="26.1078" stroke="#A0A0A0" stroke-width="1.11991"/>
<rect x="207.395" y="149.994" width="25.4947" height="26.1078" stroke="#A0A0A0" stroke-width="1.11991"/>
<rect x="232.766" y="149.994" width="25.4947" height="26.1078" stroke="#A0A0A0" stroke-width="1.11991"/>
<rect x="80.0178" y="176.552" width="25.4947" height="26.1078" stroke="#A0A0A0" stroke-width="1.11991"/>
<rect x="105.53" y="176.552" width="25.4947" height="26.1078" stroke="#A0A0A0" stroke-width="1.11991"/>
<rect x="131.066" y="176.552" width="25.4947" height="26.1078" stroke="#A0A0A0" stroke-width="1.11991"/>
<rect x="156.578" y="176.552" width="25.4947" height="26.1078" stroke="#A0A0A0" stroke-width="1.11991"/>
<rect x="181.884" y="176.552" width="25.4947" height="26.1078" stroke="#A0A0A0" stroke-width="1.11991"/>
<rect x="207.395" y="176.552" width="25.4947" height="26.1078" stroke="#A0A0A0" stroke-width="1.11991"/>
<rect x="232.766" y="176.552" width="25.4947" height="26.1078" stroke="#A0A0A0" stroke-width="1.11991"/>
<path d="M279.52 228.297C279.52 228.297 288.565 230.626 294.205 235.326C301.137 241.105 300.754 247.961 300.754 247.961" stroke="#351515" stroke-width="6.3" stroke-linecap="round"/>
<path d="M292.175 212.859C292.175 212.859 288.899 221.34 294.84 225.683C302.921 231.592 306.199 224.835 306.199 224.835" stroke="#351515" stroke-width="6.3" stroke-linecap="round"/>
<path d="M272.69 222.65C272.69 222.65 268.924 231.463 263.261 236.143C256.298 241.896 249.359 239.779 249.359 239.779" stroke="#351515" stroke-width="6.3" stroke-linecap="round"/>
<g filter="url(#filter0_i_9_418)">
<circle cx="275.197" cy="207.943" r="27.3418" fill="#DD5858"/>
</g>
<path d="M262.123 213.284C262.123 213.284 262.315 221.431 268.256 225.774C276.337 231.683 282.624 226.239 282.624 226.239" stroke="#351515" stroke-width="6.3" stroke-linecap="round"/>
<circle cx="288.659" cy="206.707" r="2.62403" fill="#DD5858" stroke="#351515" stroke-width="2.7"/>
<circle cx="280.372" cy="201.422" r="2.82632" fill="#351515"/>
<circle cx="293.842" cy="201.422" r="2.82632" fill="#351515"/>
<mask id="mask0_9_418" style="mask-type:alpha" maskUnits="userSpaceOnUse" x="271" y="215" width="34" height="11">
<path d="M272.345 215.831H304.038L304.203 216.945L303.849 218.354L304.434 220.358L303.849 221.732L304.721 223.392L303.849 225.585H272.345L271.775 224.191L272.345 222.437L271.775 220.698L272.345 219.284L271.775 217.613V216.42L272.345 215.831Z" fill="white"/>
</mask>
<g mask="url(#mask0_9_418)">
<path d="M272.345 215.831L303.931 215.812L304.204 216.945L303.849 218.354L304.434 220.358L303.849 221.732L304.721 223.392L303.849 225.585H272.345L271.775 224.191L272.345 222.437L271.775 220.698L272.345 219.284L271.775 217.613V216.42L272.345 215.831Z" fill="white"/>
<rect x="270.981" y="221.914" width="33.7395" height="0.566506" fill="#A8A8A8"/>
<rect x="270.981" y="222.864" width="33.7395" height="0.566506" fill="#A8A8A8"/>
<rect x="271.228" y="223.814" width="33.7395" height="0.566506" fill="#A8A8A8"/>
<rect x="270.981" y="224.764" width="33.7395" height="0.566506" fill="#A8A8A8"/>
<rect x="270.981" y="219.063" width="33.7395" height="0.566506" fill="#A8A8A8"/>
<rect x="270.981" y="220.013" width="33.7395" height="0.566506" fill="#A8A8A8"/>
<rect x="271.228" y="220.963" width="33.7395" height="0.566506" fill="#A8A8A8"/>
<rect x="270.981" y="216.212" width="33.7395" height="0.566506" fill="#A8A8A8"/>
<rect x="270.981" y="217.162" width="33.7395" height="0.566506" fill="#A8A8A8"/>
<rect x="271.228" y="218.112" width="33.7395" height="0.566506" fill="#A8A8A8"/>
</g>
<path d="M303.909 215.831L311.404 211.565V221.304L303.909 225.57V215.831Z" fill="#EFEFEF"/>
<path d="M311.417 211.916L303.909 216.212V216.778L311.417 212.483V211.916Z" fill="#A8A8A8"/>
<path d="M311.417 212.856L303.909 217.151V217.718L311.417 213.422V212.856Z" fill="#A8A8A8"/>
<path d="M311.417 213.83L303.909 218.125V218.692L311.417 214.396V213.83Z" fill="#A8A8A8"/>
<path d="M311.417 214.769L303.909 219.064V219.631L311.417 215.335V214.769Z" fill="#A8A8A8"/>
<path d="M311.417 215.719L303.909 220.015V220.581L311.417 216.286V215.719Z" fill="#A8A8A8"/>
<path d="M311.417 216.659L303.909 220.954V221.521L311.417 217.225V216.659Z" fill="#A8A8A8"/>
<path d="M311.417 217.621L303.909 221.917V222.483L311.417 218.188V217.621Z" fill="#A8A8A8"/>
<path d="M311.417 218.561L303.909 222.856V223.423L311.417 219.127V218.561Z" fill="#A8A8A8"/>
<path d="M311.417 219.523L303.909 223.819V224.385L311.417 220.09V219.523Z" fill="#A8A8A8"/>
<path d="M311.417 220.463L303.909 224.758V225.325L311.417 221.029V220.463Z" fill="#A8A8A8"/>
<path d="M279.828 211.628L311.414 211.562L303.916 215.831H272.336L279.828 211.628Z" fill="#EFEFEF"/>
<path d="M237.933 193.316C237.933 193.316 243.289 199.594 247.886 201.424C252.387 203.217 260.423 202.442 260.423 202.442L257.097 210.639C257.097 210.639 249.395 210.382 244.97 208.611C240.447 206.801 234.607 201.514 234.607 201.514L237.933 193.316Z" fill="#EFEFEF"/>
<path d="M267.157 194.852C267.157 194.852 270.869 201.991 274.575 205.268C278.205 208.476 287.56 211.417 287.56 211.417L281.626 216.374C281.626 216.374 273.673 214.208 270.108 211.045C266.464 207.812 261.255 201.442 261.255 201.442L267.157 194.852Z" fill="#EFEFEF"/>
<path d="M221.219 190.689C221.219 190.689 219.802 198.819 221.325 203.526C222.816 208.135 228.539 213.829 228.539 213.829L220.104 216.498C220.104 216.498 215.39 210.403 213.93 205.865C212.439 201.228 212.784 193.357 212.784 193.357L221.219 190.689Z" fill="#EFEFEF"/>
<path d="M28.5809 196.272L26.1983 234.302" stroke="#351515" stroke-width="6.3" stroke-linecap="round"/>
<path d="M45.2669 195.372L42.8844 233.402" stroke="#351515" stroke-width="6.3" stroke-linecap="round"/>
<path d="M47.632 187.144C47.632 187.144 53.9877 196.062 61.476 195.566C71.6638 194.89 67.2486 182.567 67.2486 182.567" stroke="#351515" stroke-width="6.3" stroke-linecap="round"/>
<g filter="url(#filter1_i_9_418)">
<rect x="1.92203" y="175.756" width="53.637" height="42.6411" transform="rotate(-13.6086 1.92203 175.756)" fill="#DD5858"/>
</g>
<path d="M11.7575 189.303C11.7575 189.303 2.76091 195.546 3.16324 203.04C3.71061 213.235 16.0888 208.975 16.0888 208.975" stroke="#351515" stroke-width="6.3" stroke-linecap="round"/>
<path d="M44.9668 180.518C46.8052 179.536 48.6075 179.046 49.9971 178.996C51.4856 178.943 52.0419 179.379 52.181 179.639C52.3199 179.899 52.3746 180.605 51.5022 181.813C50.6882 182.941 49.2779 184.165 47.4395 185.147C45.6013 186.129 43.8 186.62 42.4105 186.67C40.9213 186.724 40.3641 186.286 40.2253 186.026C40.0865 185.766 40.0334 185.06 40.9054 183.853C41.7194 182.725 43.1285 181.5 44.9668 180.518Z" fill="#DD5858" stroke="#351515" stroke-width="2.7"/>
<circle cx="35.7939" cy="179.872" r="2.82632" transform="rotate(-28.1108 35.7939 179.872)" fill="#351515"/>
<circle cx="47.6752" cy="173.525" r="2.82632" transform="rotate(-28.1108 47.6752 173.525)" fill="#351515"/>
<g filter="url(#filter2_d_9_418)">
<g filter="url(#filter3_i_9_418)">
<path d="M60.4806 177.898L64.7768 173.965C64.7768 173.965 68.0466 178.024 70.1705 180.344C72.2944 182.663 68.6496 186.82 66.1172 184.054C63.5848 181.288 60.4806 177.898 60.4806 177.898Z" fill="#DD5858"/>
</g>
<g filter="url(#filter4_i_9_418)">
<path d="M63.3536 179.497C60.9659 178.84 59.4994 177.264 59.075 174.824C58.7133 172.745 60.6937 169.66 60.6937 169.66L62.9101 167.113L66.929 163.952L70.3232 164.929L72.9574 166.966L74.3553 169.732L74.7316 172.474L72.0976 177.149L68.6874 178.392C68.6874 178.392 65.402 180.061 63.3536 179.497Z" fill="#351515"/>
</g>
<g filter="url(#filter5_i_9_418)">
<path d="M67.127 178.474C63.3781 177.438 61.0731 174.959 60.4015 171.128C59.8292 167.863 62.9303 163.026 62.9303 163.026L66.403 159.033L72.7032 154.079L78.0325 155.62L82.1712 158.823L84.3713 163.169L84.9682 167.475L80.8447 174.807L75.4955 176.75C75.4955 176.75 70.343 179.363 67.127 178.474Z" fill="#351515"/>
</g>
<path d="M66.0976 164.708L73.4992 161.006L78.4382 166.4L74.7447 174.152L67.7689 171.768L66.0976 164.708Z" fill="#DD5757"/>
<g filter="url(#filter6_i_9_418)">
<path d="M65.9512 156.251C70.3796 152.197 77.6731 152.956 82.2415 157.946C86.8095 162.936 86.9229 170.267 82.4946 174.321C78.0663 178.375 70.7733 177.617 66.205 172.627C61.6367 167.638 61.5229 160.306 65.9512 156.251ZM68.5532 157.546C65.0939 160.713 65.1799 166.437 68.7448 170.331C72.3099 174.225 78.0043 174.815 81.4637 171.648C84.9231 168.481 84.8372 162.756 81.2721 158.862C77.7069 154.968 72.0125 154.379 68.5532 157.546Z" fill="#DD5858"/>
</g>
<ellipse cx="75.5171" cy="164.132" rx="2.91233" ry="3.7349" transform="rotate(-42.4748 75.5171 164.132)" fill="#351515"/>
<g filter="url(#filter7_i_9_418)">
<ellipse cx="76.4475" cy="163.37" rx="0.689178" ry="1.04488" transform="rotate(-42.4748 76.4475 163.37)" fill="#A64141"/>
</g>
<path d="M76.6049 144.567L79.2279 144.525L78.0352 158.863L76.6049 144.567Z" fill="white"/>
<path d="M89.6251 150.355L91.1987 152.453L78.8898 159.903L89.6251 150.355Z" fill="white"/>
<path d="M93.7633 160.85L93.6884 163.473L79.4177 161.642L93.7633 160.85Z" fill="white"/>
</g>
<rect x="81.942" y="76.5707" width="172.95" height="15.5454" fill="#A0A0A0"/>
<path d="M95.8098 245.931L136.883 151.901" stroke="black" stroke-width="6.3" stroke-linecap="round"/>
<path d="M215.805 227.844L168.846 227.844L172.428 235.164L219.384 234.892L215.805 227.844Z" fill="#351515"/>
<path d="M205.911 207.068L158.953 207.068L162.535 214.387L209.49 214.115L205.911 207.068Z" fill="#351515"/>
<path d="M196.172 185.966L149.213 185.965L152.795 193.285L199.751 193.013L196.172 185.966Z" fill="#351515"/>
<path d="M188.189 164.064L141.23 164.064L144.812 171.384L191.768 171.112L188.189 164.064Z" fill="#351515"/>
<path d="M170.838 235.678L137.216 151.901" stroke="black" stroke-width="6.3" stroke-linecap="round"/>
<path d="M96.0223 227.844L145.977 227.844L142.166 235.164L92.2146 234.892L96.0223 227.844Z" fill="#DD5858"/>
<path d="M106.96 207.068L153.919 207.068L150.337 214.387L103.381 214.115L106.96 207.068Z" fill="#DD5858"/>
<path d="M116.7 185.966L163.658 185.965L160.076 193.285L113.12 193.013L116.7 185.966Z" fill="#DD5858"/>
<path d="M124.683 164.064L171.641 164.064L168.059 171.384L121.103 171.112L124.683 164.064Z" fill="#DD5858"/>
<path d="M136.454 254.074L173.931 151.901" stroke="black" stroke-width="6.3" stroke-linecap="round"/>
<path d="M213.967 240.57L174.264 151.901" stroke="black" stroke-width="6.3" stroke-linecap="round"/>
<path d="M147.895 129.582C147.895 129.582 148.562 135.984 141.778 138.788C133.437 142.236 127.547 138.706 127.547 138.706" stroke="#351515" stroke-width="6.3" stroke-linecap="round"/>
<path d="M164.662 123.927L162.28 161.957" stroke="#351515" stroke-width="6.3" stroke-linecap="round"/>
<path d="M182.108 103.726H200.891C200.891 103.726 201.987 108.689 202.109 111.924C202.272 116.258 199.61 120.659 199.61 120.659H181.42C181.42 120.659 183.924 115.88 184.112 112.548C184.311 109.021 182.108 103.726 182.108 103.726Z" fill="#FA90EC"/>
<circle cx="164.592" cy="93.2772" r="2.82632" transform="rotate(-28.1108 164.592 93.2772)" fill="#351515"/>
<circle cx="161.234" cy="88.2914" r="2.82632" transform="rotate(-28.1108 161.234 88.2914)" fill="#351515"/>
<path d="M166.361 97.7296C166.375 97.7205 171.242 94.394 173.01 98.0314C173.581 99.2069 173.313 100.177 172.715 100.945C173.776 101.088 174.759 101.658 175.25 103.089C176.549 106.873 170.882 107.826 170.882 107.826L168.967 102.715L166.361 97.7296Z" fill="#DD5858"/>
<path d="M182.801 107.735L146.384 118.95" stroke="#351515" stroke-width="6.3" stroke-linecap="round"/>
<path d="M155.63 81.7806L189.978 132.128L155.63 132.128V81.7806Z" fill="#DD5858"/>
<path d="M155.63 81.7689L177.978 132.09H125.608L155.63 81.7689Z" fill="#A64141"/>
<path d="M177.884 118.49C177.884 118.49 185.579 123.79 191.013 120.944C198.407 117.072 191.038 108.327 191.038 108.327" stroke="#351515" stroke-width="6.3" stroke-linecap="round"/>
<path d="M256.685 105.977C257.189 105.661 257.547 105.158 257.68 104.578C257.813 103.998 257.711 103.389 257.395 102.885C257.079 102.381 256.576 102.023 255.996 101.89C255.416 101.756 254.807 101.859 254.303 102.175C254.303 102.175 254.303 102.175 254.303 102.175C253.954 102.393 253.605 102.612 253.257 102.83C249.998 104.872 246.736 106.92 243.488 109.007C243.488 109.007 243.488 109.007 243.488 109.007C240.479 110.941 237.496 112.908 234.525 114.874C234.182 115.102 233.839 115.329 233.496 115.556C232.999 115.884 232.654 116.396 232.536 116.98C232.417 117.563 232.535 118.169 232.863 118.665C233.192 119.161 233.704 119.506 234.287 119.625C234.87 119.743 235.476 119.626 235.973 119.297C235.973 119.297 235.973 119.297 235.973 119.297C236.316 119.07 236.659 118.843 237.001 118.616C239.969 116.651 242.932 114.698 245.914 112.782C245.914 112.782 245.914 112.782 245.914 112.782C249.134 110.712 252.383 108.673 255.639 106.632C255.988 106.414 256.336 106.196 256.685 105.977Z" fill="#A74545"/>
<path d="M243.568 97.349C243.374 96.8093 242.974 96.3687 242.455 96.1241C241.936 95.8796 241.342 95.851 240.802 96.0448C240.262 96.2386 239.822 96.6389 239.577 97.1575C239.333 97.6762 239.304 98.2707 239.498 98.8104C239.498 98.8104 239.498 98.8104 239.498 98.8104C239.647 99.2245 239.793 99.632 239.935 100.039C240.577 101.876 241.182 103.764 241.784 105.653C241.784 105.653 241.784 105.654 241.784 105.654C243.568 111.29 245.316 116.967 247.07 122.634C247.2 123.055 247.33 123.475 247.461 123.896C247.63 124.444 248.01 124.902 248.517 125.17C249.024 125.437 249.617 125.492 250.165 125.323C250.713 125.154 251.171 124.773 251.438 124.266C251.706 123.759 251.761 123.166 251.592 122.619C251.592 122.619 251.592 122.619 251.592 122.619C251.462 122.198 251.331 121.777 251.201 121.357C249.446 115.686 247.701 110.017 245.905 104.344C245.905 104.344 245.905 104.344 245.905 104.344C245.298 102.438 244.687 100.53 244.016 98.6091C243.868 98.186 243.716 97.7627 243.568 97.349Z" fill="#A74545"/>
<path d="M115.437 121.644C115.198 121.644 114.969 121.739 114.801 121.908C114.632 122.076 114.537 122.305 114.537 122.544C114.537 122.783 114.632 123.012 114.801 123.18C114.969 123.349 115.198 123.444 115.437 123.444C116.013 123.445 116.611 123.499 117.193 123.594C117.208 123.597 117.223 123.599 117.239 123.602C117.063 123.585 116.831 123.412 116.772 123.299C116.701 123.183 116.704 123.145 116.7 123.132C116.714 123.15 116.672 123.573 116.602 123.88C116.532 124.214 116.445 124.559 116.354 124.907C116.17 125.606 115.968 126.317 115.779 127.04C115.778 127.045 115.776 127.05 115.775 127.055C115.26 129.119 114.83 131.114 114.314 133.119C114.299 133.177 114.284 133.236 114.269 133.295C113.809 135.097 113.408 136.908 113.08 138.748C113.061 138.86 113.041 138.973 113.022 139.084C112.983 139.323 112.977 139.53 112.977 139.725C112.978 139.855 112.987 140.041 112.988 140.074C112.988 140.095 112.988 140.113 112.989 140.133C112.989 140.146 112.989 140.167 112.991 140.196C113 140.238 112.968 140.132 113.028 140.402C113.041 140.443 113.056 140.497 113.111 140.594C113.169 140.682 113.262 140.873 113.611 141.001C113.968 141.145 114.417 140.908 114.47 140.835C114.579 140.741 114.625 140.67 114.658 140.617C114.769 140.418 114.753 140.393 114.769 140.35C114.807 140.145 114.791 140.203 114.799 140.149C114.804 140.088 114.809 140.031 114.813 139.98C114.822 139.873 114.83 139.767 114.838 139.664C114.854 139.455 114.869 139.247 114.885 139.04C114.917 138.625 114.951 138.212 114.986 137.798C115.056 136.972 115.134 136.146 115.222 135.323C115.226 135.288 115.229 135.252 115.233 135.216C115.436 133.151 115.429 131.176 115.526 129.209C115.531 129.121 115.535 129.031 115.539 128.943C115.622 127.42 115.657 125.876 115.76 124.412C115.77 124.286 115.781 124.16 115.794 124.039C115.806 123.923 115.817 123.816 115.83 123.734C115.837 123.686 115.846 123.645 115.848 123.636C115.84 123.631 115.882 123.645 115.711 123.844C115.677 123.873 115.634 123.933 115.451 124.004C115.264 124.097 114.842 124.027 114.703 123.892C114.439 123.656 114.511 123.642 114.493 123.638C114.498 123.647 114.522 123.75 114.536 123.847C114.568 124.052 114.587 124.295 114.603 124.539C114.633 125.028 114.646 125.54 114.66 126.056C114.662 126.139 114.664 126.224 114.666 126.308C114.667 126.336 114.668 126.364 114.672 126.4C114.674 126.426 114.677 126.458 114.685 126.502C114.71 126.536 114.639 126.604 114.909 126.959C114.924 126.978 115.057 127.118 115.229 127.186C115.403 127.264 115.637 127.276 115.806 127.228C115.978 127.183 116.087 127.106 116.159 127.046C116.206 127.007 116.222 126.989 116.246 126.964C116.33 126.871 116.359 126.814 116.384 126.769C116.424 126.691 116.425 126.68 116.439 126.647C116.46 126.589 116.463 126.575 116.472 126.545C116.498 126.454 116.509 126.399 116.522 126.341C116.546 126.227 116.565 126.126 116.584 126.025C116.62 125.823 116.653 125.626 116.685 125.429C116.748 125.035 116.807 124.645 116.864 124.253C116.865 124.251 116.865 124.248 116.865 124.245C116.868 124.227 116.873 124.208 116.871 124.215C116.869 124.22 116.868 124.228 116.848 124.276C116.835 124.302 116.823 124.335 116.764 124.415C116.732 124.456 116.691 124.512 116.583 124.591C116.484 124.666 116.246 124.785 115.968 124.749C115.871 124.737 115.787 124.711 115.714 124.678C115.647 124.653 115.495 124.542 115.427 124.39C115.359 124.24 115.372 124.147 115.374 124.119C115.385 124.064 115.367 124.147 115.323 124.225C115.285 124.299 115.264 124.331 115.171 124.488L116.798 124.619C116.802 124.631 116.803 124.635 116.803 124.635C116.751 124.42 116.705 123.826 116.654 123.357L116.606 123.146C116.601 123.132 116.595 123.117 116.589 123.102C116.56 123.032 116.522 122.947 116.43 122.831C116.343 122.722 116.157 122.55 115.885 122.491C115.612 122.43 115.387 122.502 115.265 122.561C115.137 122.624 115.07 122.683 115.016 122.732C114.823 122.927 114.792 123.039 114.734 123.15C114.665 123.324 114.67 123.535 114.734 123.726C114.798 123.918 114.916 124.075 115.075 124.172C115.235 124.269 115.429 124.301 115.629 124.27C115.828 124.238 116.018 124.145 116.14 124.004C116.14 124.004 116.14 124.004 116.14 124.004C116.162 123.985 116.218 123.967 116.14 124.062C116.115 124.087 116.08 124.123 115.987 124.17C115.899 124.213 115.714 124.277 115.479 124.225C115.244 124.174 115.09 124.029 115.027 123.949C114.958 123.863 114.937 123.812 114.923 123.777C114.92 123.77 114.917 123.763 114.915 123.757L114.866 123.546C114.927 124.033 114.911 124.409 115.074 125.133C115.083 125.166 115.094 125.202 115.11 125.244L115.783 127.061L116.737 125.375C116.759 125.338 116.859 125.177 116.924 125.049C117.014 124.865 117.115 124.673 117.162 124.323C117.181 124.15 117.186 123.902 117.054 123.619C116.924 123.331 116.653 123.12 116.45 123.035C116.372 123.001 116.284 122.974 116.182 122.961C115.893 122.924 115.642 123.047 115.534 123.129C115.416 123.215 115.367 123.28 115.327 123.331C115.254 123.431 115.23 123.486 115.208 123.534C115.167 123.626 115.152 123.681 115.136 123.733C115.109 123.834 115.095 123.911 115.084 123.988C115.084 123.991 115.083 123.993 115.083 123.996C115.028 124.377 114.969 124.762 114.908 125.142C114.877 125.331 114.846 125.521 114.813 125.703C114.796 125.794 114.779 125.884 114.762 125.963C114.754 126 114.744 126.043 114.743 126.045C114.744 126.042 114.743 126.043 114.754 126.013C114.762 125.994 114.761 125.989 114.794 125.924C114.816 125.886 114.841 125.834 114.922 125.744C114.945 125.72 114.961 125.703 115.006 125.664C115.077 125.606 115.184 125.531 115.355 125.485C115.522 125.438 115.754 125.45 115.927 125.527C116.098 125.595 116.229 125.733 116.244 125.751C116.509 126.102 116.432 126.149 116.456 126.176C116.462 126.209 116.463 126.228 116.464 126.239C116.466 126.255 116.466 126.259 116.466 126.258C116.463 126.175 116.461 126.091 116.459 126.008C116.445 125.491 116.432 124.968 116.399 124.427C116.382 124.153 116.362 123.882 116.316 123.574C116.289 123.416 116.268 123.265 116.187 123.029C116.125 122.907 116.144 122.765 115.78 122.449C115.587 122.273 115.097 122.192 114.848 122.308C114.606 122.4 114.513 122.501 114.43 122.579C114.163 122.878 114.16 123.029 114.113 123.156C114.079 123.281 114.064 123.376 114.05 123.465C114.028 123.612 114.016 123.736 114.004 123.851C113.989 123.993 113.976 124.133 113.966 124.271C113.856 125.842 113.824 127.336 113.742 128.851C113.737 128.942 113.733 129.034 113.728 129.125C113.631 131.126 113.631 133.133 113.444 135.022C113.44 135.059 113.436 135.095 113.432 135.131C113.342 135.97 113.263 136.808 113.192 137.645C113.157 138.065 113.123 138.483 113.091 138.901C113.075 139.11 113.059 139.319 113.043 139.527C113.035 139.63 113.027 139.734 113.019 139.835C113.015 139.882 113.011 139.937 113.007 139.977C113.006 139.986 113.005 139.999 113.004 140.003C113.007 139.995 112.993 140.056 113.018 139.933C113.032 139.894 113.015 139.871 113.125 139.674C113.159 139.621 113.204 139.55 113.313 139.456C113.366 139.384 113.814 139.147 114.172 139.291C114.521 139.419 114.613 139.61 114.671 139.697C114.725 139.794 114.74 139.847 114.753 139.888C114.811 140.147 114.779 140.037 114.787 140.073C114.788 140.092 114.788 140.095 114.788 140.094C114.788 140.093 114.788 140.086 114.788 140.074C114.783 139.871 114.778 139.82 114.777 139.714C114.776 139.584 114.784 139.464 114.798 139.382C114.815 139.276 114.834 139.167 114.853 139.06C115.169 137.281 115.564 135.5 116.013 133.741C116.028 133.681 116.043 133.622 116.058 133.563C116.578 131.544 117.026 129.475 117.517 127.511C117.518 127.506 117.519 127.501 117.52 127.496C117.845 126.004 118.463 124.977 118.47 122.807C118.443 122.677 118.416 122.533 118.281 122.317C118.16 122.107 117.83 121.862 117.538 121.827C117.52 121.824 117.502 121.821 117.484 121.818C116.809 121.708 116.135 121.645 115.437 121.644Z" fill="#DD8532"/>
<path d="M112.571 143.892C112.344 143.967 112.157 144.13 112.05 144.343C111.944 144.557 111.926 144.804 112.002 145.03C112.077 145.257 112.239 145.444 112.453 145.551C112.666 145.657 112.914 145.675 113.14 145.6C113.14 145.6 113.14 145.6 113.14 145.6C113.243 145.565 113.337 145.534 113.411 145.513C113.476 145.486 113.599 145.496 113.403 145.488C113.403 145.488 113.403 145.488 113.403 145.488C113.273 145.494 112.956 145.295 112.9 145.149C112.829 145.013 112.846 144.999 112.846 145.024C112.846 145.024 112.846 145.024 112.846 145.024C112.87 145.066 112.794 145.149 112.919 144.87C112.919 144.869 112.92 144.868 112.92 144.866C112.995 144.731 113.158 144.617 113.267 144.587C113.378 144.552 113.44 144.56 113.474 144.564C113.474 144.564 113.475 144.564 113.475 144.564C113.554 144.582 113.615 144.588 113.72 144.746C113.721 144.746 113.721 144.746 113.721 144.746C113.793 144.927 113.805 144.874 113.728 145.1C113.728 145.1 113.728 145.1 113.728 145.1C113.681 145.217 113.511 145.361 113.436 145.384C113.358 145.416 113.363 145.405 113.397 145.402C113.397 145.402 113.397 145.402 113.397 145.402C113.462 145.379 113.626 145.438 113.405 145.361C113.405 145.36 113.405 145.36 113.405 145.36C113.304 145.316 113.176 145.192 113.127 145.083C113.075 144.975 113.075 144.908 113.074 144.877C113.074 144.877 113.074 144.877 113.074 144.877C113.076 144.814 113.082 144.718 113.204 144.587C113.204 144.587 113.205 144.586 113.205 144.586C113.349 144.45 113.429 144.466 113.423 144.463C113.423 144.464 113.376 144.46 113.354 144.451L113.699 144.66C113.7 144.661 113.702 144.662 113.703 144.664C113.906 144.878 113.899 145.045 113.902 145.113C113.9 145.188 113.889 145.216 113.876 145.247C113.876 145.248 113.876 145.248 113.876 145.248C113.856 145.299 113.81 145.347 113.809 145.345C113.806 145.346 113.846 145.317 113.905 145.288C114.116 145.18 114.276 144.993 114.35 144.767C114.424 144.542 114.406 144.296 114.299 144.085C114.192 143.873 114.005 143.712 113.78 143.638C113.554 143.563 113.309 143.581 113.097 143.687C113.097 143.687 113.097 143.687 113.097 143.687C112.961 143.756 112.813 143.838 112.644 143.98C112.493 144.106 112.319 144.312 112.223 144.545C112.222 144.547 112.221 144.548 112.221 144.55C112.153 144.713 112.107 144.883 112.104 145.102C112.107 145.311 112.133 145.63 112.44 145.946C112.442 145.948 112.444 145.95 112.445 145.952L112.79 146.161C113.248 146.267 113.749 146.463 114.487 145.849C114.488 145.848 114.489 145.847 114.49 145.847C114.788 145.535 114.873 145.181 114.874 144.868C114.874 144.868 114.874 144.868 114.874 144.868C114.872 144.708 114.851 144.511 114.742 144.287C114.637 144.062 114.411 143.842 114.194 143.743C114.194 143.742 114.194 143.742 114.193 143.742C113.65 143.523 113.448 143.601 113.17 143.617C113.17 143.617 113.17 143.617 113.17 143.617C113.061 143.633 112.922 143.647 112.711 143.736C112.504 143.816 112.22 144.061 112.111 144.309C112.111 144.31 112.111 144.31 112.11 144.311C111.894 144.847 111.927 145.173 112.165 145.652C112.166 145.652 112.166 145.653 112.166 145.653C112.442 146.1 112.823 146.282 113.229 146.347C113.229 146.347 113.23 146.347 113.23 146.347C113.393 146.368 113.587 146.373 113.823 146.299C114.054 146.23 114.328 146.034 114.468 145.786C114.469 145.784 114.47 145.782 114.472 145.78C114.738 145.24 114.642 145.011 114.628 144.768C114.628 144.767 114.628 144.766 114.628 144.765C114.608 144.657 114.6 144.509 114.462 144.255C114.342 143.99 113.9 143.71 113.636 143.703C113.636 143.703 113.636 143.703 113.636 143.703C113.2 143.67 113.086 143.746 112.922 143.781C112.787 143.819 112.674 143.857 112.571 143.892Z" fill="#DD8532"/>
<path d="M123.698 122.29C123.459 122.29 123.23 122.384 123.062 122.553C122.893 122.722 122.798 122.951 122.798 123.19C122.798 123.428 122.893 123.657 123.062 123.826C123.23 123.995 123.459 124.09 123.698 124.09C124.238 124.085 124.691 124.119 125.059 124.247C125.064 124.248 125.068 124.25 125.072 124.251C124.958 124.229 124.75 124.018 124.729 123.908C124.685 123.713 124.722 123.851 124.684 123.962C124.655 124.085 124.605 124.24 124.547 124.401C124.431 124.73 124.282 125.067 124.147 125.515C124.139 125.545 124.129 125.579 124.121 125.608C123.733 127.079 123.449 128.487 123.162 129.929C123.16 129.938 123.159 129.947 123.157 129.955C122.866 131.45 122.457 132.898 122.04 134.438C122.037 134.449 122.034 134.461 122.031 134.472C121.599 136.192 121.241 137.875 120.915 139.622C120.909 139.657 120.902 139.699 120.896 139.734C120.869 139.902 120.865 140.027 120.86 140.11C120.859 140.123 120.858 140.134 120.858 140.13C120.859 140.126 120.859 140.122 120.863 140.092C120.866 140.076 120.869 140.056 120.884 140.004C120.895 139.97 120.9 139.944 120.943 139.856C120.965 139.817 120.991 139.762 121.07 139.671C121.129 139.602 121.314 139.423 121.606 139.38C121.646 139.376 121.766 139.354 121.957 139.444C122.152 139.538 122.258 139.726 122.278 139.79C122.32 139.93 122.29 139.858 122.301 139.793C122.311 139.643 122.356 139.414 122.409 139.186C122.516 138.717 122.665 138.239 122.76 137.628C122.765 137.59 122.771 137.552 122.776 137.514C122.936 136.318 122.92 135.168 123.023 134.125C123.025 134.103 123.027 134.081 123.029 134.059C123.168 132.491 123.17 130.979 123.302 129.539C123.302 129.538 123.303 129.538 123.303 129.537C123.424 128.286 123.545 127.032 123.683 125.794C123.684 125.777 123.686 125.761 123.688 125.745C123.753 125.248 123.833 124.655 123.878 124.095C123.88 124.07 123.883 124.045 123.885 124.02C123.88 124.028 123.892 124.117 123.763 124.286C123.625 124.46 123.431 124.499 123.441 124.495C123.44 124.495 123.448 124.494 123.465 124.492C123.528 124.479 123.63 124.495 123.553 124.48C123.537 124.476 123.512 124.468 123.473 124.45C123.337 124.393 123.272 124.216 123.289 124.254C123.295 124.276 123.298 124.388 123.278 124.511C123.246 124.745 123.136 125.088 123.044 125.284C123.044 125.284 123.044 125.285 123.043 125.285L124.719 125.456C124.741 125.702 124.766 125.237 124.705 125.544C124.699 125.558 124.691 125.578 124.681 125.599C124.65 125.656 124.618 125.744 124.46 125.883C124.318 126.032 123.888 126.136 123.677 126.053C123.271 125.904 123.303 125.815 123.25 125.777C123.192 125.699 123.203 125.701 123.203 125.7C123.209 125.706 123.231 125.75 123.248 125.795C123.328 126.007 123.492 126.181 123.7 126.28C123.908 126.379 124.143 126.395 124.358 126.322C124.572 126.25 124.75 126.095 124.856 125.891C124.962 125.686 124.987 125.448 124.922 125.231C124.894 125.14 124.865 125.049 124.81 124.925C124.778 124.86 124.755 124.798 124.653 124.663C124.578 124.598 124.585 124.48 124.144 124.32C123.915 124.232 123.466 124.341 123.311 124.502C123.138 124.653 123.097 124.755 123.058 124.829C123.045 124.857 123.034 124.884 123.026 124.905C122.915 125.26 122.95 125.293 122.936 125.431C122.935 125.49 122.935 125.546 122.937 125.61C122.944 125.686 122.932 125.703 122.979 125.915L123.59 128.23L124.655 126.086C124.656 126.082 124.658 126.079 124.659 126.076C124.87 125.615 124.979 125.258 125.058 124.777C125.093 124.531 125.119 124.264 125.057 123.917C125.01 123.591 124.745 123.049 124.262 122.832C124.176 122.79 124.1 122.764 124.033 122.746C123.669 122.656 123.468 122.683 123.238 122.706C123.206 122.71 123.166 122.715 123.116 122.724C122.967 122.749 122.608 122.847 122.366 123.151C122.134 123.449 122.108 123.705 122.09 123.876C122.088 123.899 122.087 123.922 122.085 123.945C122.041 124.471 121.975 124.959 121.9 125.542C121.898 125.559 121.896 125.575 121.894 125.592C121.753 126.856 121.633 128.109 121.511 129.364C121.511 129.364 121.511 129.365 121.511 129.366C121.368 130.933 121.367 132.448 121.237 133.889C121.235 133.908 121.233 133.928 121.232 133.947C121.119 135.139 121.133 136.244 120.992 137.275C120.987 137.308 120.983 137.34 120.978 137.373C120.92 137.763 120.776 138.261 120.656 138.779C120.596 139.046 120.533 139.312 120.505 139.669C120.5 139.856 120.466 140.045 120.594 140.424C120.656 140.605 120.842 140.906 121.152 141.055C121.457 141.202 121.706 141.183 121.875 141.16C122.169 141.116 122.356 140.936 122.416 140.866C122.497 140.773 122.524 140.716 122.547 140.675C122.592 140.583 122.598 140.554 122.61 140.515C122.628 140.455 122.632 140.426 122.637 140.401C122.645 140.354 122.647 140.333 122.649 140.312C122.653 140.273 122.654 140.249 122.656 140.227C122.662 140.118 122.668 140.051 122.672 140.028C122.676 140.001 122.682 139.965 122.688 139.934C122.998 138.271 123.361 136.561 123.775 134.919C123.777 134.909 123.78 134.898 123.783 134.888C124.179 133.421 124.619 131.868 124.923 130.303C124.925 130.294 124.927 130.284 124.928 130.275C125.207 128.866 125.502 127.43 125.855 126.09C125.862 126.066 125.87 126.038 125.877 126.015C125.956 125.744 126.105 125.387 126.241 125.008C126.31 124.815 126.379 124.613 126.437 124.371C126.479 124.119 126.589 123.87 126.428 123.311C126.344 123.008 125.981 122.64 125.672 122.554C125.664 122.551 125.655 122.548 125.647 122.545C124.955 122.307 124.272 122.288 123.698 122.29Z" fill="#DD8532"/>
<path d="M120.182 145.763C120.076 145.977 120.058 146.224 120.134 146.45C120.209 146.677 120.371 146.864 120.585 146.971C120.798 147.077 121.046 147.095 121.272 147.019C121.498 146.944 121.686 146.782 121.792 146.568C121.792 146.568 121.792 146.568 121.792 146.568C121.808 146.535 121.832 146.493 121.87 146.399C121.888 146.348 121.915 146.294 121.938 146.144C121.947 146.067 121.964 145.961 121.917 145.765C121.881 145.574 121.671 145.279 121.457 145.18C121.42 145.16 121.384 145.144 121.352 145.131C120.992 145.022 120.986 145.077 120.927 145.067C120.884 145.069 120.872 145.07 120.869 145.07C120.862 145.072 120.937 145.059 121.077 145.111C121.086 145.115 121.095 145.118 121.104 145.122C121.248 145.189 121.316 145.261 121.378 145.355C121.433 145.449 121.504 145.588 121.464 145.836C121.461 145.849 121.459 145.863 121.455 145.876C121.383 146.137 121.258 146.22 121.195 146.268C121.125 146.314 121.079 146.33 121.011 146.343C121.007 146.344 121.004 146.344 121.001 146.345C120.934 146.354 120.866 146.355 120.766 146.326C120.673 146.294 120.5 146.231 120.36 145.977C120.354 145.966 120.349 145.955 120.344 145.944C120.244 145.714 120.271 145.549 120.314 145.416C120.363 145.284 120.442 145.141 120.66 145.021C120.671 145.016 120.682 145.011 120.692 145.006C120.909 144.912 121.069 144.927 121.224 144.976C121.367 145.028 121.6 145.147 121.706 145.501C121.712 145.521 121.716 145.541 121.72 145.561C121.76 146.007 121.645 146.006 121.645 146.046C121.629 146.069 121.636 146.058 121.646 146.049C121.646 146.048 121.646 146.048 121.647 146.048C121.655 146.039 121.665 146.034 121.638 146.052C121.597 146.051 121.588 146.176 121.129 146.118C121.11 146.114 121.092 146.109 121.075 146.103C120.649 145.944 120.617 145.709 120.585 145.652C120.56 145.575 120.562 145.55 120.56 145.523C120.56 145.521 120.56 145.52 120.56 145.519C120.563 145.455 120.571 145.36 120.692 145.231C120.693 145.229 120.695 145.228 120.697 145.226C120.808 145.123 120.999 144.998 121.335 145.111C121.338 145.112 121.341 145.114 121.344 145.115C121.479 145.175 121.55 145.225 121.651 145.372C121.697 145.45 121.765 145.564 121.767 145.793C121.778 146.023 121.603 146.326 121.456 146.423C121.441 146.435 121.427 146.445 121.413 146.455C121.208 146.579 121.178 146.553 121.141 146.565C121.11 146.569 121.101 146.568 121.09 146.567C121.069 146.563 121.059 146.574 120.955 146.521C120.952 146.519 120.949 146.517 120.945 146.515C120.725 146.39 120.603 146.098 120.69 145.845C120.691 145.841 120.693 145.837 120.694 145.833C120.819 145.528 120.977 145.523 120.975 145.516C120.975 145.516 120.975 145.515 120.976 145.515C120.987 145.513 121.009 145.504 121.084 145.509C121.154 145.513 121.309 145.557 121.424 145.673C121.425 145.674 121.426 145.675 121.427 145.676C121.563 145.808 121.617 145.998 121.6 146.147C121.576 146.335 121.498 146.391 121.488 146.394C121.636 146.222 121.72 146 121.714 145.771C121.709 145.543 121.616 145.326 121.454 145.168C121.292 145.01 121.074 144.922 120.845 144.922C120.616 144.922 120.397 145.011 120.228 145.163C120.228 145.163 120.228 145.163 120.228 145.163C120.064 145.325 119.857 145.581 119.814 145.995C119.78 146.322 119.897 146.698 120.162 146.956C120.164 146.958 120.165 146.96 120.167 146.961C120.671 147.42 121.187 147.319 121.47 147.246C121.473 147.245 121.475 147.245 121.477 147.244C121.741 147.16 122.176 146.998 122.396 146.419C122.399 146.411 122.401 146.404 122.404 146.396C122.584 145.861 122.336 145.231 121.855 144.962C121.847 144.957 121.839 144.953 121.831 144.948C121.58 144.815 121.402 144.789 121.214 144.772C121.12 144.766 121.026 144.766 120.911 144.78C120.792 144.803 120.677 144.795 120.401 144.966C120.383 144.978 120.364 144.992 120.345 145.007C120.158 145.135 119.955 145.488 119.967 145.77C119.968 146.05 120.057 146.214 120.13 146.335C120.286 146.569 120.441 146.685 120.671 146.784C120.676 146.786 120.681 146.788 120.686 146.79C121.243 146.989 121.687 146.772 121.961 146.507C121.966 146.503 121.97 146.499 121.974 146.495C122.268 146.189 122.355 145.841 122.36 145.533C122.36 145.527 122.36 145.52 122.36 145.514C122.358 145.38 122.347 145.248 122.288 145.07C122.221 144.914 122.131 144.574 121.6 144.382C121.577 144.375 121.554 144.369 121.532 144.364C120.948 144.281 120.819 144.468 120.674 144.532C120.543 144.616 120.459 144.692 120.379 144.77C120.376 144.773 120.372 144.777 120.369 144.78C120.293 144.858 120.218 144.94 120.135 145.067C120.07 145.209 119.892 145.325 119.952 145.896C119.956 145.921 119.962 145.946 119.969 145.972C120.1 146.416 120.414 146.599 120.644 146.68C120.885 146.758 121.143 146.773 121.444 146.641C121.459 146.634 121.474 146.627 121.489 146.619C122.055 146.252 122.202 145.837 121.979 145.193C121.972 145.178 121.965 145.163 121.957 145.148C121.511 144.467 121.063 144.546 120.729 144.565C120.72 144.567 120.711 144.568 120.702 144.57C120.515 144.604 120.354 144.665 120.184 144.779C120.022 144.894 119.807 145.07 119.706 145.451C119.702 145.47 119.697 145.489 119.694 145.509C119.631 146.236 119.923 146.523 120.382 146.771C120.397 146.778 120.412 146.784 120.428 146.79C120.667 146.88 120.849 146.871 120.946 146.868C120.983 146.867 121.01 146.865 121.007 146.865C120.988 146.854 121.022 146.906 120.701 146.81C120.672 146.798 120.639 146.784 120.604 146.765C120.406 146.674 120.207 146.395 120.176 146.221C120.132 146.042 120.15 145.954 120.156 145.894C120.174 145.78 120.189 145.759 120.195 145.74C120.207 145.712 120.198 145.733 120.182 145.763Z" fill="#DD8532"/>
<path d="M224.79 150.615C236.235 152.889 235.088 163.459 234.145 167.705C233.201 171.951 228.516 178.33 218.143 177.002C207.771 175.674 205.691 168.407 205.691 164.059C205.691 159.711 206.492 153.321 213.733 150.615" stroke="#00C49A" stroke-width="2.25" stroke-linecap="round"/>
<path d="M213.48 149.409C213.48 149.409 219.94 148.625 219.979 149.094C220.037 149.79 214.239 151.73 214.239 151.73L213.48 149.409Z" fill="#00C49A"/>
<defs>
<filter id="filter0_i_9_418" x="247.855" y="178.801" width="56.4837" height="56.4837" filterUnits="userSpaceOnUse" color-interpolation-filters="sRGB">
<feFlood flood-opacity="0" result="BackgroundImageFix"/>
<feBlend mode="normal" in="SourceGraphic" in2="BackgroundImageFix" result="shape"/>
<feColorMatrix in="SourceAlpha" type="matrix" values="0 0 0 0 0 0 0 0 0 0 0 0 0 0 0 0 0 0 127 0" result="hardAlpha"/>
<feOffset dx="6.75" dy="-8.1"/>
<feGaussianBlur stdDeviation="0.9"/>
<feComposite in2="hardAlpha" operator="arithmetic" k2="-1" k3="1"/>
<feColorMatrix type="matrix" values="0 0 0 0 0 0 0 0 0 0 0 0 0 0 0 0 0 0 0.25 0"/>
<feBlend mode="normal" in2="shape" result="effect1_innerShadow_9_418"/>
</filter>
<filter id="filter1_i_9_418" x="1.92203" y="161.336" width="63.9641" height="55.8641" filterUnits="userSpaceOnUse" color-interpolation-filters="sRGB">
<feFlood flood-opacity="0" result="BackgroundImageFix"/>
<feBlend mode="normal" in="SourceGraphic" in2="BackgroundImageFix" result="shape"/>
<feColorMatrix in="SourceAlpha" type="matrix" values="0 0 0 0 0 0 0 0 0 0 0 0 0 0 0 0 0 0 127 0" result="hardAlpha"/>
<feOffset dx="13.05" dy="-3.15"/>
<feGaussianBlur stdDeviation="0.9"/>
<feComposite in2="hardAlpha" operator="arithmetic" k2="-1" k3="1"/>
<feColorMatrix type="matrix" values="0 0 0 0 0 0 0 0 0 0 0 0 0 0 0 0 0 0 0.25 0"/>
<feBlend mode="normal" in2="shape" result="effect1_innerShadow_9_418"/>
</filter>
<filter id="filter2_d_9_418" x="59.0309" y="144.525" width="36.8249" height="43.0967" filterUnits="userSpaceOnUse" color-interpolation-filters="sRGB">
<feFlood flood-opacity="0" result="BackgroundImageFix"/>
<feColorMatrix in="SourceAlpha" type="matrix" values="0 0 0 0 0 0 0 0 0 0 0 0 0 0 0 0 0 0 127 0" result="hardAlpha"/>
<feOffset dx="1.5345" dy="2.0925"/>
<feGaussianBlur stdDeviation="0.279"/>
<feComposite in2="hardAlpha" operator="out"/>
<feColorMatrix type="matrix" values="0 0 0 0 0 0 0 0 0 0 0 0 0 0 0 0 0 0 0.25 0"/>
<feBlend mode="normal" in2="BackgroundImageFix" result="effect1_dropShadow_9_418"/>
<feBlend mode="normal" in="SourceGraphic" in2="effect1_dropShadow_9_418" result="shape"/>
</filter>
<filter id="filter3_i_9_418" x="60.4806" y="173.407" width="10.8864" height="11.5646" filterUnits="userSpaceOnUse" color-interpolation-filters="sRGB">
<feFlood flood-opacity="0" result="BackgroundImageFix"/>
<feBlend mode="normal" in="SourceGraphic" in2="BackgroundImageFix" result="shape"/>
<feColorMatrix in="SourceAlpha" type="matrix" values="0 0 0 0 0 0 0 0 0 0 0 0 0 0 0 0 0 0 127 0" result="hardAlpha"/>
<feOffset dx="3.627" dy="-3.7665"/>
<feGaussianBlur stdDeviation="0.279"/>
<feComposite in2="hardAlpha" operator="arithmetic" k2="-1" k3="1"/>
<feColorMatrix type="matrix" values="0 0 0 0 0 0 0 0 0 0 0 0 0 0 0 0 0 0 0.25 0"/>
<feBlend mode="normal" in2="shape" result="effect1_innerShadow_9_418"/>
</filter>
<filter id="filter4_i_9_418" x="59.0309" y="163.673" width="16.2588" height="15.9407" filterUnits="userSpaceOnUse" color-interpolation-filters="sRGB">
<feFlood flood-opacity="0" result="BackgroundImageFix"/>
<feBlend mode="normal" in="SourceGraphic" in2="BackgroundImageFix" result="shape"/>
<feColorMatrix in="SourceAlpha" type="matrix" values="0 0 0 0 0 0 0 0 0 0 0 0 0 0 0 0 0 0 127 0" result="hardAlpha"/>
<feOffset dx="3.2085" dy="-0.279"/>
<feGaussianBlur stdDeviation="0.279"/>
<feComposite in2="hardAlpha" operator="arithmetic" k2="-1" k3="1"/>
<feColorMatrix type="matrix" values="0 0 0 0 0 0 0 0 0 0 0 0 0 0 0 0 0 0 0.25 0"/>
<feBlend mode="normal" in2="shape" result="effect1_innerShadow_9_418"/>
</filter>
<filter id="filter5_i_9_418" x="60.331" y="154.079" width="24.6371" height="24.5802" filterUnits="userSpaceOnUse" color-interpolation-filters="sRGB">
<feFlood flood-opacity="0" result="BackgroundImageFix"/>
<feBlend mode="normal" in="SourceGraphic" in2="BackgroundImageFix" result="shape"/>
<feColorMatrix in="SourceAlpha" type="matrix" values="0 0 0 0 0 0 0 0 0 0 0 0 0 0 0 0 0 0 127 0" result="hardAlpha"/>
<feOffset dx="47.709" dy="0.558"/>
<feGaussianBlur stdDeviation="0.279"/>
<feComposite in2="hardAlpha" operator="arithmetic" k2="-1" k3="1"/>
<feColorMatrix type="matrix" values="0 0 0 0 0 0 0 0 0 0 0 0 0 0 0 0 0 0 0.25 0"/>
<feBlend mode="normal" in2="shape" result="effect1_innerShadow_9_418"/>
</filter>
<filter id="filter6_i_9_418" x="62.703" y="153.366" width="23.5981" height="23.5621" filterUnits="userSpaceOnUse" color-interpolation-filters="sRGB">
<feFlood flood-opacity="0" result="BackgroundImageFix"/>
<feBlend mode="normal" in="SourceGraphic" in2="BackgroundImageFix" result="shape"/>
<feColorMatrix in="SourceAlpha" type="matrix" values="0 0 0 0 0 0 0 0 0 0 0 0 0 0 0 0 0 0 127 0" result="hardAlpha"/>
<feOffset dx="3.069" dy="-0.279"/>
<feGaussianBlur stdDeviation="0.279"/>
<feComposite in2="hardAlpha" operator="arithmetic" k2="-1" k3="1"/>
<feColorMatrix type="matrix" values="0 0 0 0 0 0 0 0 0 0 0 0 0 0 0 0 0 0 0.25 0"/>
<feBlend mode="normal" in2="shape" result="effect1_innerShadow_9_418"/>
</filter>
<filter id="filter7_i_9_418" x="75.5779" y="162.47" width="2.29736" height="1.94034" filterUnits="userSpaceOnUse" color-interpolation-filters="sRGB">
<feFlood flood-opacity="0" result="BackgroundImageFix"/>
<feBlend mode="normal" in="SourceGraphic" in2="BackgroundImageFix" result="shape"/>
<feColorMatrix in="SourceAlpha" type="matrix" values="0 0 0 0 0 0 0 0 0 0 0 0 0 0 0 0 0 0 127 0" result="hardAlpha"/>
<feOffset dx="1.116" dy="0.1395"/>
<feGaussianBlur stdDeviation="0.279"/>
<feComposite in2="hardAlpha" operator="arithmetic" k2="-1" k3="1"/>
<feColorMatrix type="matrix" values="0 0 0 0 0 0 0 0 0 0 0 0 0 0 0 0 0 0 0.25 0"/>
<feBlend mode="normal" in2="shape" result="effect1_innerShadow_9_418"/>
</filter>
</defs>
</svg>
