<svg width="326" height="177" viewBox="0 0 326 177" fill="none" xmlns="http://www.w3.org/2000/svg">
<g filter="url(#filter0_d_10_2041)">
<path d="M74.7677 114.165C74.7677 114.165 85.4645 116.755 88.6408 124.28C92.962 134.518 86.8333 130.97 86.8333 130.97" stroke="#351515" stroke-width="8.64613" stroke-linecap="round"/>
<path d="M38.1854 117.596L38.2599 161.363" stroke="#351515" stroke-width="8.64613" stroke-linecap="round"/>
<path d="M60.7678 115.746L60.8423 159.513" stroke="#351515" stroke-width="8.64613" stroke-linecap="round"/>
<g filter="url(#filter1_i_10_2041)">
<circle cx="45.1284" cy="110.499" r="37.9488" fill="#ED3E52"/>
</g>
<circle cx="60.3307" cy="109.862" r="3.0132" transform="rotate(-12.904 60.3307 109.862)" fill="#351515" stroke="#351515" stroke-width="1.05083"/>
<circle cx="76.7887" cy="106.101" r="3.0132" transform="rotate(-12.904 76.7887 106.101)" fill="#351515" stroke="#351515" stroke-width="1.05083"/>
<path d="M12.9021 117.988C12.9021 117.988 6.42639 126.887 8.87779 134.679C12.2129 145.279 25.9711 141.795 25.9711 141.795" stroke="#351515" stroke-width="8.64613" stroke-linecap="round"/>
<path d="M64.7729 117.34C64.7729 117.34 69.4786 119.941 72.089 119.194C74.4527 118.518 77.207 114.495 77.207 114.495" stroke="#351515" stroke-width="3" stroke-linecap="round"/>
<g filter="url(#filter2_i_10_2041)">
<path d="M16.0247 86.0393C16.0247 86.0393 34.5256 88.7458 46.4509 88.6473C57.3285 88.5575 74.1834 86.0393 74.1834 86.0393C74.1834 86.0393 76.2407 88.3368 77.2159 89.9504C78.0647 91.3547 79.1249 93.6934 79.1249 93.6934C79.1249 93.6934 59.9856 97.2824 47.5792 97.4854C33.2154 97.7205 10.9896 93.6934 10.9896 93.6934C10.9896 93.6934 12.089 91.316 12.9907 89.9077C14.0259 88.2908 16.0247 86.0393 16.0247 86.0393Z" fill="#9D5755"/>
</g>
<g filter="url(#filter3_i_10_2041)">
<ellipse cx="67.8793" cy="88.4653" rx="11.2456" ry="12.5575" fill="white"/>
</g>
<g filter="url(#filter4_i_10_2041)">
<rect x="93.0135" y="101.994" width="17.4838" height="40.0415" rx="2" transform="rotate(24.5296 93.0135 101.994)" fill="#ED3E52"/>
</g>
<rect x="91.7449" y="105.973" width="13.9886" height="34.114" transform="rotate(24.5296 91.7449 105.973)" fill="white"/>
<ellipse cx="98.6543" cy="104.402" rx="2.90247" ry="4.46064" transform="rotate(20.4976 98.6543 104.402)" fill="#838383"/>
<path d="M96.2751 105.239L100.351 107.002L101.253 112.009L91.5114 107.795L96.2751 105.239Z" fill="#838383"/>
<path d="M119.48 123.105H202.894V168.641H119.48V123.105Z" fill="#351515"/>
<path d="M202.893 123.105L316.697 5.80377V82.2565L202.893 168.552V123.105Z" fill="#351515"/>
<g filter="url(#filter5_i_10_2041)">
<path d="M194.267 70.3544C194.633 70.1283 195.053 70.0052 195.483 69.9981L275.662 68.6651C278.02 68.6259 279.001 71.664 277.067 73.0115L205.765 122.677C205.365 122.955 204.889 123.105 204.401 123.105H117.324C114.919 123.105 114.023 119.951 116.068 118.686L194.267 70.3544Z" fill="white"/>
</g>
<g filter="url(#filter6_i_10_2041)">
<path d="M235.89 1.09879H321.014V4.73381L277.495 72.55L194.858 72.55L235.89 1.09879Z" fill="white"/>
</g>
<path d="M228.63 77.735L208.092 95.5794" stroke="#351515" stroke-width="7.52094" stroke-linecap="round"/>
<path d="M203.229 79.9517L185.872 93.3628" stroke="#351515" stroke-width="7.52094" stroke-linecap="round"/>
<path d="M186.189 41.0973C186.189 41.0973 176.661 43.0484 175.489 51.9306C173.894 64.0146 186.955 65.1327 186.955 65.1327" stroke="#351515" stroke-width="7.52094" stroke-linecap="round"/>
<g filter="url(#filter7_i_10_2041)">
<path d="M260.439 15.8227L200.719 15.8227L181.827 24.1956L181.827 83.1551L244.148 84.4961L260.439 76.257L260.439 15.8227Z" fill="#ED3E52"/>
</g>
<path d="M250.74 52.7989C250.74 52.7989 252.65 65.7315 245.796 71.501C236.471 79.3502 230.072 65.0924 230.072 65.0924" stroke="#351515" stroke-width="7.52094" stroke-linecap="round"/>
<path d="M199.269 54.5161C196.832 54.6513 195.169 56.5774 195.28 58.5792C195.392 60.581 197.257 62.3114 199.694 62.1762C202.131 62.0408 203.793 60.1148 203.682 58.1131C203.571 56.1113 201.706 54.3811 199.269 54.5161Z" fill="#ED3E52" stroke="#351515" stroke-width="3.94692"/>
<circle cx="4.13157" cy="4.13157" r="4.13157" transform="matrix(-0.998465 0.055391 0.055391 0.998465 212.066 45.5634)" fill="#351515"/>
<circle cx="4.13157" cy="4.13157" r="4.13157" transform="matrix(-0.998465 0.055391 0.055391 0.998465 195.951 45.0602)" fill="#351515"/>
</g>
<defs>
<filter id="filter0_d_10_2041" x="0" y="1.09879" width="325.014" height="175.542" filterUnits="userSpaceOnUse" color-interpolation-filters="sRGB">
<feFlood flood-opacity="0" result="BackgroundImageFix"/>
<feColorMatrix in="SourceAlpha" type="matrix" values="0 0 0 0 0 0 0 0 0 0 0 0 0 0 0 0 0 0 127 0" result="hardAlpha"/>
<feOffset dy="4"/>
<feGaussianBlur stdDeviation="2"/>
<feComposite in2="hardAlpha" operator="out"/>
<feColorMatrix type="matrix" values="0 0 0 0 0 0 0 0 0 0 0 0 0 0 0 0 0 0 0.25 0"/>
<feBlend mode="normal" in2="BackgroundImageFix" result="effect1_dropShadow_10_2041"/>
<feBlend mode="normal" in="SourceGraphic" in2="effect1_dropShadow_10_2041" result="shape"/>
</filter>
<filter id="filter1_i_10_2041" x="7.17961" y="72.55" width="75.8976" height="75.8976" filterUnits="userSpaceOnUse" color-interpolation-filters="sRGB">
<feFlood flood-opacity="0" result="BackgroundImageFix"/>
<feBlend mode="normal" in="SourceGraphic" in2="BackgroundImageFix" result="shape"/>
<feColorMatrix in="SourceAlpha" type="matrix" values="0 0 0 0 0 0 0 0 0 0 0 0 0 0 0 0 0 0 127 0" result="hardAlpha"/>
<feOffset dx="13.2311" dy="-1.1938"/>
<feComposite in2="hardAlpha" operator="arithmetic" k2="-1" k3="1"/>
<feColorMatrix type="matrix" values="0 0 0 0 0 0 0 0 0 0 0 0 0 0 0 0 0 0 0.25 0"/>
<feBlend mode="normal" in2="shape" result="effect1_innerShadow_10_2041"/>
</filter>
<filter id="filter2_i_10_2041" x="10.9896" y="86.0393" width="68.1353" height="11.4561" filterUnits="userSpaceOnUse" color-interpolation-filters="sRGB">
<feFlood flood-opacity="0" result="BackgroundImageFix"/>
<feBlend mode="normal" in="SourceGraphic" in2="BackgroundImageFix" result="shape"/>
<feColorMatrix in="SourceAlpha" type="matrix" values="0 0 0 0 0 0 0 0 0 0 0 0 0 0 0 0 0 0 127 0" result="hardAlpha"/>
<feOffset dx="11.938"/>
<feComposite in2="hardAlpha" operator="arithmetic" k2="-1" k3="1"/>
<feColorMatrix type="matrix" values="0 0 0 0 0 0 0 0 0 0 0 0 0 0 0 0 0 0 0.25 0"/>
<feBlend mode="normal" in2="shape" result="effect1_innerShadow_10_2041"/>
</filter>
<filter id="filter3_i_10_2041" x="56.6337" y="75.9077" width="22.4912" height="25.1151" filterUnits="userSpaceOnUse" color-interpolation-filters="sRGB">
<feFlood flood-opacity="0" result="BackgroundImageFix"/>
<feBlend mode="normal" in="SourceGraphic" in2="BackgroundImageFix" result="shape"/>
<feColorMatrix in="SourceAlpha" type="matrix" values="0 0 0 0 0 0 0 0 0 0 0 0 0 0 0 0 0 0 127 0" result="hardAlpha"/>
<feOffset dx="2.3876" dy="-2"/>
<feComposite in2="hardAlpha" operator="arithmetic" k2="-1" k3="1"/>
<feColorMatrix type="matrix" values="0 0 0 0 0 0 0 0 0 0 0 0 0 0 0 0 0 0 0.25 0"/>
<feBlend mode="normal" in2="shape" result="effect1_innerShadow_10_2041"/>
</filter>
<filter id="filter4_i_10_2041" x="77.0391" y="102.643" width="31.2309" height="42.3876" filterUnits="userSpaceOnUse" color-interpolation-filters="sRGB">
<feFlood flood-opacity="0" result="BackgroundImageFix"/>
<feBlend mode="normal" in="SourceGraphic" in2="BackgroundImageFix" result="shape"/>
<feColorMatrix in="SourceAlpha" type="matrix" values="0 0 0 0 0 0 0 0 0 0 0 0 0 0 0 0 0 0 127 0" result="hardAlpha"/>
<feOffset dx="-1" dy="-1"/>
<feComposite in2="hardAlpha" operator="arithmetic" k2="-1" k3="1"/>
<feColorMatrix type="matrix" values="0 0 0 0 0 0 0 0 0 0 0 0 0 0 0 0 0 0 0.25 0"/>
<feBlend mode="normal" in2="shape" result="effect1_innerShadow_10_2041"/>
</filter>
<filter id="filter5_i_10_2041" x="114.932" y="68.6647" width="163.163" height="54.4402" filterUnits="userSpaceOnUse" color-interpolation-filters="sRGB">
<feFlood flood-opacity="0" result="BackgroundImageFix"/>
<feBlend mode="normal" in="SourceGraphic" in2="BackgroundImageFix" result="shape"/>
<feColorMatrix in="SourceAlpha" type="matrix" values="0 0 0 0 0 0 0 0 0 0 0 0 0 0 0 0 0 0 127 0" result="hardAlpha"/>
<feOffset dy="-3.5814"/>
<feComposite in2="hardAlpha" operator="arithmetic" k2="-1" k3="1"/>
<feColorMatrix type="matrix" values="0 0 0 0 0 0 0 0 0 0 0 0 0 0 0 0 0 0 0.25 0"/>
<feBlend mode="normal" in2="shape" result="effect1_innerShadow_10_2041"/>
</filter>
<filter id="filter6_i_10_2041" x="194.858" y="1.09879" width="126.156" height="71.4512" filterUnits="userSpaceOnUse" color-interpolation-filters="sRGB">
<feFlood flood-opacity="0" result="BackgroundImageFix"/>
<feBlend mode="normal" in="SourceGraphic" in2="BackgroundImageFix" result="shape"/>
<feColorMatrix in="SourceAlpha" type="matrix" values="0 0 0 0 0 0 0 0 0 0 0 0 0 0 0 0 0 0 127 0" result="hardAlpha"/>
<feOffset dx="-4.7752"/>
<feComposite in2="hardAlpha" operator="arithmetic" k2="-1" k3="1"/>
<feColorMatrix type="matrix" values="0 0 0 0 0 0 0 0 0 0 0 0 0 0 0 0 0 0 0.25 0"/>
<feBlend mode="normal" in2="shape" result="effect1_innerShadow_10_2041"/>
</filter>
<filter id="filter7_i_10_2041" x="181.827" y="15.8227" width="78.6118" height="68.6734" filterUnits="userSpaceOnUse" color-interpolation-filters="sRGB">
<feFlood flood-opacity="0" result="BackgroundImageFix"/>
<feBlend mode="normal" in="SourceGraphic" in2="BackgroundImageFix" result="shape"/>
<feColorMatrix in="SourceAlpha" type="matrix" values="0 0 0 0 0 0 0 0 0 0 0 0 0 0 0 0 0 0 127 0" result="hardAlpha"/>
<feOffset dx="-16.7132" dy="8.3566"/>
<feComposite in2="hardAlpha" operator="arithmetic" k2="-1" k3="1"/>
<feColorMatrix type="matrix" values="0 0 0 0 0 0 0 0 0 0 0 0 0 0 0 0 0 0 0.25 0"/>
<feBlend mode="normal" in2="shape" result="effect1_innerShadow_10_2041"/>
</filter>
</defs>
</svg>
