<svg width="335" height="57" viewBox="0 0 335 57" fill="none" xmlns="http://www.w3.org/2000/svg">
<path d="M3.37685 47.8815V9.51296H10.2369V25.4666H28.9027V9.51296H35.7362V47.8815H28.9027V31.2365H10.2369V47.8815H3.37685ZM54.2424 48.4398C45.787 48.4398 40.6818 42.8295 40.6818 33.8689V33.8423C40.6818 24.9614 45.8667 19.1117 53.9233 19.1117C61.9799 19.1117 66.9787 24.7753 66.9787 33.2839V35.411H47.2494C47.3557 40.3567 50.0679 43.2815 54.3753 43.2815C57.6724 43.2815 59.8262 41.5266 60.4643 39.6388L60.5175 39.4526H66.7128L66.6331 39.7451C65.7556 44.0792 61.6077 48.4398 54.2424 48.4398ZM54.0031 24.2967C50.4933 24.2967 47.8609 26.6631 47.3291 30.9972H60.5441C60.0655 26.5302 57.5129 24.2967 54.0031 24.2967ZM79.5821 48.3601C73.9451 48.3601 70.1429 44.8769 70.1429 39.8515V39.7983C70.1429 34.7995 74.0249 31.7949 80.8584 31.3694L88.2237 30.9174V28.9764C88.2237 26.1313 86.3624 24.403 83.0121 24.403C79.8746 24.403 77.9601 25.8654 77.5347 27.9394L77.4815 28.1787H71.3394L71.366 27.8596C71.7648 22.8608 76.0989 19.1117 83.2514 19.1117C90.2976 19.1117 94.8444 22.8342 94.8444 28.4978V47.8815H88.2237V43.5474H88.0641C86.4422 46.4988 83.3046 48.3601 79.5821 48.3601ZM76.737 39.5856C76.737 41.8989 78.6515 43.3081 81.5497 43.3081C85.352 43.3081 88.2237 40.7821 88.2237 37.4318V35.3047L81.789 35.7035C78.5185 35.9162 76.737 37.3255 76.737 39.559V39.5856ZM100.375 47.8815V9.51296H106.996V47.8815H100.375ZM123.109 48.4398C117.206 48.4398 114.414 46.0468 114.414 40.2503V24.8019H110.426V19.6967H114.414V12.5441H121.141V19.6967H126.379V24.8019H121.141V39.6919C121.141 42.4572 122.364 43.3347 124.784 43.3347C125.422 43.3347 125.927 43.2549 126.379 43.2283V48.2005C125.608 48.3069 124.438 48.4398 123.109 48.4398ZM131.112 47.8815V9.51296H137.733V24.4296H137.893C139.355 21.0528 142.36 19.1117 146.587 19.1117C152.65 19.1117 156.532 23.5256 156.532 30.3325V47.8815H149.911V31.6353C149.911 27.3013 147.731 24.6955 143.928 24.6955C140.179 24.6955 137.733 27.5406 137.733 31.6353V47.8815H131.112ZM230.53 48.5462C221.729 48.5462 215.933 44.3983 215.481 37.5116L215.454 37.1128H222.022L222.075 37.4318C222.58 40.7289 225.957 42.7763 230.769 42.7763C235.609 42.7763 238.64 40.6226 238.64 37.3255V37.2989C238.64 34.4272 236.646 32.885 231.7 31.8481L227.579 30.9972C220.027 29.4284 216.305 25.9186 216.305 20.2019V20.1753C216.331 13.4216 222.261 8.84822 230.53 8.84822C238.906 8.84822 244.383 13.2621 244.782 19.8296L244.809 20.2817H238.241L238.188 19.9626C237.736 16.6123 234.784 14.6181 230.477 14.6181C225.983 14.6447 223.191 16.7453 223.191 19.8031V19.8296C223.191 22.5418 225.292 24.1371 229.919 25.0943L234.067 25.9452C242.043 27.5938 245.527 30.8377 245.527 36.8203V36.8469C245.527 43.9994 239.89 48.5462 230.53 48.5462ZM258.316 48.3601C252.679 48.3601 248.877 44.8769 248.877 39.8515V39.7983C248.877 34.7995 252.759 31.7949 259.592 31.3694L266.958 30.9174V28.9764C266.958 26.1313 265.096 24.403 261.746 24.403C258.609 24.403 256.694 25.8654 256.269 27.9394L256.216 28.1787H250.073L250.1 27.8596C250.499 22.8608 254.833 19.1117 261.985 19.1117C269.032 19.1117 273.578 22.8342 273.578 28.4978V47.8815H266.958V43.5474H266.798C265.176 46.4988 262.039 48.3601 258.316 48.3601ZM255.471 39.5856C255.471 41.8989 257.385 43.3081 260.284 43.3081C264.086 43.3081 266.958 40.7821 266.958 37.4318V35.3047L260.523 35.7035C257.253 35.9162 255.471 37.3255 255.471 39.559V39.5856ZM280.758 47.8815V24.8019H276.902V19.6967H280.758V17.0112C280.758 11.5072 283.363 8.95458 289.479 8.95458C290.782 8.95458 292.191 9.06094 293.015 9.22047V13.847C292.483 13.7673 291.739 13.7141 291.021 13.7141C288.442 13.7141 287.245 14.9106 287.245 17.1973V19.6967H292.909V24.8019H287.378V47.8815H280.758ZM307.427 48.4398C298.971 48.4398 293.866 42.8295 293.866 33.8689V33.8423C293.866 24.9614 299.051 19.1117 307.108 19.1117C315.164 19.1117 320.163 24.7753 320.163 33.2839V35.411H300.434C300.54 40.3567 303.252 43.2815 307.56 43.2815C310.857 43.2815 313.011 41.5266 313.649 39.6388L313.702 39.4526H319.897L319.817 39.7451C318.94 44.0792 314.792 48.4398 307.427 48.4398ZM307.187 24.2967C303.678 24.2967 301.045 26.6631 300.513 30.9972H313.728C313.25 26.5302 310.697 24.2967 307.187 24.2967Z" fill="white"/>
<path d="M203.728 0C208.427 0 212.236 3.80961 212.236 8.50879V43.9414C212.236 49.8541 206.354 53.9647 200.802 51.9316L194.663 49.6836C193.726 49.3404 192.735 49.1641 191.737 49.1641H181.094C180.107 49.1641 179.128 49.3365 178.2 49.6719L171.771 51.9961C166.224 54.0011 160.369 49.892 160.369 43.9941V8.50879C160.369 3.80961 164.179 0 168.878 0H203.728ZM170.17 5.4707C169.523 5.4707 168.991 5.96268 168.927 6.59277L168.913 6.84863C168.849 7.47899 168.317 7.97069 167.67 7.9707H166.532C165.213 7.9707 164.144 9.04047 164.144 10.3594V15.9971C164.144 17.5514 165.09 18.9496 166.532 19.5283C167.975 20.1071 168.92 21.5054 168.92 23.0596V24.7695C168.92 26.3811 167.99 27.8479 166.532 28.5352C165.074 29.2223 164.144 30.6892 164.144 32.3008V38.2744C164.144 39.5933 165.213 40.6631 166.532 40.6631C167.851 40.6633 168.92 41.7399 168.92 43.0586C168.92 44.386 169.996 45.4696 171.323 45.4697H201.655C205.415 45.4697 208.462 42.4224 208.462 38.6631V12.2783C208.462 8.51898 205.415 5.4707 201.655 5.4707H170.17Z" fill="white"/>
<rect x="183.985" y="15.4087" width="7.78135" height="20.1237" fill="white"/>
<rect x="197.937" y="21.5799" width="7.78135" height="20.1237" transform="rotate(90 197.937 21.5799)" fill="white"/>
</svg>
